<svg width="96" height="96" viewBox="0 0 96 96" fill="none" xmlns="http://www.w3.org/2000/svg">
<g id="Fav" clip-path="url(#clip0_1277_13780)">
<g id="Vector">
<path d="M0 48C0 25.3726 0 14.0589 7.02944 7.02944C14.0589 0 25.3726 0 48 0C70.6274 0 81.9411 0 88.9706 7.02944C96 14.0589 96 25.3726 96 48C96 70.6274 96 81.9411 88.9706 88.9706C81.9411 96 70.6274 96 48 96C25.3726 96 14.0589 96 7.02944 88.9706C0 81.9411 0 70.6274 0 48Z" fill="#F28338"/>
<path d="M41.1359 72.4148L41.1578 72.4357C45.0545 75.8356 47.0028 77.5355 49.4665 77.9713C51.4771 78.327 53.7672 77.9238 55.5353 76.9027C57.702 75.6515 58.9398 73.4113 61.4154 68.9309C61.7578 68.3111 62.1167 67.666 62.4929 66.9944C66.8393 58.1015 69.4589 48.4136 70.1628 45.228C70.9555 41.6402 71.5123 37.9836 71.6155 34.3197C71.6901 31.6692 71.3086 27.4949 70.3017 26.0249C68.8081 23.8445 66.4136 22.4144 62.3557 23.4057C58.2977 24.397 55.5903 27.4509 53.4853 30.2058C50.0814 34.6607 48.4067 38.7904 47.0553 42.6301C44.0464 39.0166 40.75 35.6853 36.6277 33.1767C33.619 31.3457 29.5604 28.7043 25.7491 29.2056C23.4675 29.5057 18.8401 31.8152 18.5822 36.7945C18.2669 39.5358 19.3667 42.4061 20.4187 44.8835C21.8729 48.3082 23.7529 51.5596 25.8303 54.6593C30.2042 61.1856 35.4319 66.9624 41.1359 72.4148Z" fill="white"/>
</g>
</g>
<defs>
<clipPath id="clip0_1277_13780">
<rect width="96" height="96" fill="white"/>
</clipPath>
</defs>
</svg>